[h264 @ 0x55caa1d44e00] Reinit context to 1920x1088, pix_fmt: yuv420p
Input #0, mov,mp4,m4a,3gp,3g2,mj2, from '/var/www/html/project/media/video/original/ag576aa_54623.mp4':
  Metadata:
    major_brand     : mp42
    minor_version   : 0
    compatible_brands: isommp42
    creation_time   : 2023-06-16T09:29:23.000000Z
    com.android.version: 13
  Duration: 00:00:23.97, start: 0.000000, bitrate: 12977 kb/s
    Stream #0:0(eng): Video: h264 (High), 1 reference frame (avc1 / 0x31637661), yuv420p(tv, bt709, left), 1920x1080 (1920x1088), 12867 kb/s, 30 fps, 30 tbr, 90k tbn, 180k tbc (default)
    Metadata:
      creation_time   : 2023-06-16T12:38:43.000000Z
      handler_name    : VideoHandle
    Stream #0:1(eng): Audio: aac (LC) (mp4a / 0x6134706D), 48000 Hz, stereo, fltp, 123 kb/s (default)
    Metadata:
      creation_time   : 2023-06-16T12:38:43.000000Z
      handler_name    : SoundHandle
[h264 @ 0x55caa1d89700] Reinit context to 1280x720, pix_fmt: yuv420p
Input #1, mov,mp4,m4a,3gp,3g2,mj2, from '/var/www/html/project/static/images/templates/Codino.mp4':
  Metadata:
    major_brand     : mp42
    minor_version   : 1
    compatible_brands: isommp41mp42
    creation_time   : 2021-07-11T07:02:58.000000Z
  Duration: 00:00:02.00, start: 0.000000, bitrate: 1007 kb/s
    Stream #1:0(ita): Audio: aac (LC) (mp4a / 0x6134706D), 44100 Hz, stereo, fltp, 102 kb/s (default)
    Metadata:
      creation_time   : 2021-07-11T07:02:58.000000Z
      handler_name    : Core Media Audio
    Stream #1:1(und): Video: h264 (High), 1 reference frame (avc1 / 0x31637661), yuv420p(tv, bt709, progressive, left), 1280x720 [SAR 1:1 DAR 16:9], 813 kb/s, 25 fps, 25 tbr, 25k tbn, 50k tbc (default)
    Metadata:
      creation_time   : 2021-07-11T07:02:58.000000Z
      handler_name    : Core Media Video
[Parsed_scale_0 @ 0x55caa1e39040] w:1280 h:720 flags:'bilinear' interl:0
[Parsed_scale_2 @ 0x55caa1e0a280] w:1280 h:720 flags:'bilinear' interl:0
Stream mapping:
  Stream #0:0 (h264) -> scale
  Stream #0:1 (aac) -> concat:in0:a0
  Stream #1:0 (aac) -> concat:in1:a0
  Stream #1:1 (h264) -> scale
  concat:out:v0 -> Stream #0:0 (libx264)
  concat:out:a0 -> Stream #0:1 (aac)
Press [q] to stop, [?] for help
[h264 @ 0x55caa1e35b80] Reinit context to 1920x1088, pix_fmt: yuv420p
[h264 @ 0x55caa23030c0] Reinit context to 1280x720, pix_fmt: yuv420p
[Parsed_scale_0 @ 0x55caa3784fc0] w:1280 h:720 flags:'bilinear' interl:0
[Parsed_scale_2 @ 0x55caa1e2b5c0] w:1280 h:720 flags:'bilinear' interl:0
[graph 0 input from stream 0:0 @ 0x55caa1e26500] w:1920 h:1080 pixfmt:yuv420p tb:1/90000 fr:30/1 sar:0/1 sws_param:flags=2
[graph 0 input from stream 1:1 @ 0x55caa1d74f40] w:1280 h:720 pixfmt:yuv420p tb:1/25000 fr:25/1 sar:1/1 sws_param:flags=2
[graph_0_in_0_1 @ 0x55caa1e50c80] tb:1/48000 samplefmt:fltp samplerate:48000 chlayout:0x3
[graph_0_in_1_0 @ 0x55caa1e2c740] tb:1/44100 samplefmt:fltp samplerate:44100 chlayout:0x3
[Parsed_concat_4 @ 0x55caa1e4d800] auto-inserting filter 'auto_resampler_0' between the filter 'graph_0_in_1_0' and the filter 'Parsed_concat_4'
[Parsed_scale_0 @ 0x55caa3784fc0] w:1920 h:1080 fmt:yuv420p sar:0/1 -> w:1280 h:720 fmt:yuv420p sar:0/1 flags:0x2
[Parsed_setsar_1 @ 0x55caa1e2ce40] w:1280 h:720 sar:0/1 dar:16/9 -> sar:1/1 dar:16/9
[Parsed_scale_2 @ 0x55caa1e2b5c0] w:1280 h:720 fmt:yuv420p sar:1/1 -> w:1280 h:720 fmt:yuv420p sar:1/1 flags:0x2
[Parsed_setsar_3 @ 0x55caa1e29840] w:1280 h:720 sar:1/1 dar:16/9 -> sar:1/1 dar:16/9
[auto_resampler_0 @ 0x55caa1d8ef40] ch:2 chl:stereo fmt:fltp r:44100Hz -> ch:2 chl:stereo fmt:fltp r:48000Hz
[libx264 @ 0x55caa1dff680] using SAR=1/1
[libx264 @ 0x55caa1dff680] using cpu capabilities: MMX2 SSE2Fast SSSE3 SSE4.2 AVX FMA3 BMI2 AVX2
[libx264 @ 0x55caa1dff680] profile High, level 3.1
[libx264 @ 0x55caa1dff680] 264 - core 155 r2917 0a84d98 - H.264/MPEG-4 AVC codec - Copyleft 2003-2018 - http://www.videolan.org/x264.html - options: cabac=1 ref=1 deblock=1:0:0 analyse=0x3:0x113 me=hex subme=2 psy=1 psy_rd=1.00:0.00 mixed_ref=0 me_range=16 chroma_me=1 trellis=0 8x8dct=1 cqm=0 deadzone=21,11 fast_pskip=1 chroma_qp_offset=0 threads=22 lookahead_threads=5 sliced_threads=0 nr=0 decimate=1 interlaced=0 bluray_compat=0 constrained_intra=0 bframes=3 b_pyramid=2 b_adapt=1 b_bias=0 direct=1 weightb=1 open_gop=0 weightp=1 keyint=250 keyint_min=25 scenecut=40 intra_refresh=0 rc_lookahead=10 rc=crf mbtree=1 crf=18.0 qcomp=0.60 qpmin=0 qpmax=69 qpstep=4 ip_ratio=1.40 aq=1:1.00
Output #0, mp4, to '/var/www/html/project/media/video/watermarks/ag576aa_54623.mp4':
  Metadata:
    major_brand     : mp42
    minor_version   : 0
    compatible_brands: isommp42
    com.android.version: 13
    encoder         : Lavf58.29.100
    Stream #0:0: Video: h264 (libx264), 1 reference frame (avc1 / 0x31637661), yuv420p(progressive), 1280x720 [SAR 1:1 DAR 16:9], q=-1--1, 30 fps, 15360 tbn, 30 tbc (default)
    Metadata:
      encoder         : Lavc58.54.100 libx264
    Side data:
      cpb: bitrate max/min/avg: 0/0/0 buffer size: 0 vbv_delay: -1
    Stream #0:1: Audio: aac (LC) (mp4a / 0x6134706D), 48000 Hz, stereo, fltp, delay 1024, 128 kb/s (default)
    Metadata:
      encoder         : Lavc58.54.100 aac
[Parsed_concat_4 @ 0x55caa1e4d800] EOF on in0:v0, 1 streams left in segment.
[Parsed_concat_4 @ 0x55caa1e4d800] EOF on in0:a0, 0 streams left in segment.
[Parsed_concat_4 @ 0x55caa1e4d800] Segment finished at pts=23966379
[Parsed_concat_4 @ 0x55caa1e4d800] EOF on in1:v0, 1 streams left in segment.
[Parsed_concat_4 @ 0x55caa1e4d800] EOF on in1:a0, 0 streams left in segment.
[Parsed_concat_4 @ 0x55caa1e4d800] Segment finished at pts=25985066
No more output streams to write to, finishing.
frame=  768 fps= 74 q=-1.0 Lsize=   12726kB time=00:00:26.00 bitrate=4008.9kbits/s speed= 2.5x    
[AVIOContext @ 0x55caa1d43180] Statistics: 0 seeks, 21 writeouts
video:12297kB audio:400kB subtitle:0kB other streams:0kB global headers:0kB muxing overhead: 0.227447%
Input file #0 (/var/www/html/project/media/video/original/ag576aa_54623.mp4):
  Input stream #0:0 (video): 718 packets read (38495060 bytes); 718 frames decoded; 
  Input stream #0:1 (audio): 1121 packets read (368567 bytes); 1121 frames decoded (1147904 samples); 
  Total: 1839 packets (38863627 bytes) demuxed
Input file #1 (/var/www/html/project/static/images/templates/Codino.mp4):
  Input stream #1:0 (audio): 89 packets read (26579 bytes); 87 frames decoded (89024 samples); 
  Input stream #1:1 (video): 50 packets read (203365 bytes); 50 frames decoded; 
  Total: 139 packets (229944 bytes) demuxed
Output file #0 (/var/www/html/project/media/video/watermarks/ag576aa_54623.mp4):
  Output stream #0:0 (video): 768 frames encoded; 768 packets muxed (12592306 bytes); 
  Output stream #0:1 (audio): 1219 frames encoded (1247283 samples); 1220 packets muxed (409851 bytes); 
  Total: 1988 packets (13002157 bytes) muxed
[AVIOContext @ 0x55caa1d733c0] Statistics: 2 seeks, 53 writeouts
[libx264 @ 0x55caa1dff680] frame I:5     Avg QP:12.73  size: 68114
[libx264 @ 0x55caa1dff680] frame P:244   Avg QP:16.72  size: 30831
[libx264 @ 0x55caa1dff680] frame B:519   Avg QP:18.41  size:  9110
[libx264 @ 0x55caa1dff680] consecutive B-frames:  5.1% 11.5%  9.0% 74.5%
[libx264 @ 0x55caa1dff680] mb I  I16..4: 39.9% 17.6% 42.5%
[libx264 @ 0x55caa1dff680] mb P  I16..4: 19.7% 15.1%  5.8%  P16..4: 24.2% 14.0%  8.8%  0.0%  0.0%    skip:12.5%
[libx264 @ 0x55caa1dff680] mb B  I16..4:  4.0%  1.4%  0.4%  B16..8: 29.2% 11.9%  1.1%  direct:13.9%  skip:38.1%  L0:45.6% L1:42.6% BI:11.9%
[libx264 @ 0x55caa1dff680] 8x8 transform intra:33.4% inter:14.9%
[libx264 @ 0x55caa1dff680] coded y,uvDC,uvAC intra: 35.5% 77.4% 35.8% inter: 12.7% 34.3% 1.8%
[libx264 @ 0x55caa1dff680] i16 v,h,dc,p: 41% 30% 23%  6%
[libx264 @ 0x55caa1dff680] i8 v,h,dc,ddl,ddr,vr,hd,vl,hu: 22% 22% 31%  4%  5%  4%  4%  4%  4%
[libx264 @ 0x55caa1dff680] i4 v,h,dc,ddl,ddr,vr,hd,vl,hu: 24% 18% 17%  6%  9%  9%  7%  6%  5%
[libx264 @ 0x55caa1dff680] i8c dc,h,v,p: 49% 22% 22%  7%
[libx264 @ 0x55caa1dff680] Weighted P-Frames: Y:6.1% UV:2.9%
[libx264 @ 0x55caa1dff680] kb/s:3884.30
[aac @ 0x55caa1e01780] Qavg: 2154.670
[AVIOContext @ 0x55caa1d4c040] Statistics: 39172247 bytes read, 18 seeks
[AVIOContext @ 0x55caa1e528c0] Statistics: 1530915 bytes read, 42 seeks
